# xmcd
#
# Track frame offsets: 
#        151
#        22241
#        39911
#        65658
#        83802
#        100091
#        118638
#        131277
#        143508
#        168065
#        183379
#
# Disc length: 2757 seconds
#
# Revision: 0
# Processed by: cddbd v1.5PL3 Copyright (c) Steve Scherf et al.
# Submitted via: ExactAudioCopy v0.90b4
#
DISCID=870ac30b
DTITLE=Tany Manga - Soa
DYEAR=2002
DGENRE=Blues
TTITLE0=Soa
TTITLE1=Fitiavako vaovao
TTITLE2=Marary
TTITLE3=Mirédaréda
TTITLE4=Le Ségatier
TTITLE5=Tiako ianao
TTITLE6=Rivodoza
TTITLE7=I don't know
TTITLE8=Oloaraiki, volagna araiki
TTITLE9=Asmara
TTITLE10=Velomo
EXTD=Tao Ravao, Vincent Bucher and Karim Touré
EXTT0=
EXTT1=
EXTT2=
EXTT3=
EXTT4=
EXTT5=
EXTT6=
EXTT7=
EXTT8=
EXTT9=
EXTT10=
PLAYORDER=
